<?xml version="1.0" encoding="UTF-8"?>
<svg xmlns="http://www.w3.org/2000/svg" version="1.1" viewBox="0 0 1279 170">
  <defs>
    <style>
      .cls-1 {
        fill: #f193b8;
      }
    </style>
  </defs>
  <!-- Generator: Adobe Illustrator 28.7.1, SVG Export Plug-In . SVG Version: 1.2.0 Build 142)  -->
  <g>
    <g id="Layer_1">
      <g id="Layer_1-2" data-name="Layer_1">
        <path class="cls-1" d="M874.2,152.4v-62.2l7-7-7-7V20.5c8.8-6.6,17.6-13.2,27.3-20.4h-87.3c7.3,6.5,13.8,12.1,20.2,17.8v58.4l-6.9,6.9,6.9,6.9v58.1c-6.5,5.8-13.1,11.7-20.5,18.4h143.6v-65.6c-12.2,17.8-23.8,34.8-35.2,51.4h-48.1Z"/>
        <g>
          <path class="cls-1" d="M547.5,66.8c-.6,0-1.1-.2-1.7-.4h-6.1c-1,0-1.9.2-2.9.4l-3.4,14.1c1.5.6,2.6.9,3,1,.2,0,.3.2.6.3,1.9.7,3.8,1.4,5.5,2,1.8.7,3.3,1.2,4,1.5l4.1-17.6c-.5-.2-1-.5-1.6-.7-.5-.3-1-.5-1.5-.6h0Z"/>
          <path class="cls-1" d="M544.8,92.7l-6.7-2.4c-1.2-.4-2.5-.9-3.7-1.4l-.7-.3c-.5,0-1.2-.4-2.1-.7l-15.4,64.3-20.7,14.5h53.4c-6-5.3-13.4-9.9-18.2-14.1l14-59.8h.1Z"/>
          <path class="cls-1" d="M656.3,166.7l-18.1-14-39.8-141.2c5.4-3.8,10.5-7.3,16.6-11.6h-83c6.9,4.9,11.9,8.5,17.8,12.6l-11.2,46.7h5.5c.7,0,1.7,0,3,.2l5,1.4h.2l11-46.8,34.9,138.9c-5.2,4.6-9.9,8.8-15.6,13.8h73.7,0Z"/>
        </g>
        <path class="cls-1" d="M249.8,155.7v-69.9c.8-.3,1.6-.6,2.4-.8,1.9-.5,3.8-.3,5.6.5,1,.4,1.8,1,2.7,1.6.9.5,1.9,1.1,2.9,1.5,1.9.9,3.9,1.8,5.9,2.8,1.8.8,3.6,1.7,5.4,2.5.8.3,1.6.7,2.4,1.1.4.2.8.3,1.1.5.1,0,1.1.4,1.1.5,4.3,1.9,9.2,2.3,14.5,1.2,2.7-.4,5.4-1.9,8.2-4.3,2.8-2.5,4.2-5.2,4.4-8.1-3.5,2.7-6.8,3.5-9.9,2.5s-6-2.8-8.9-5.1-5.8-4.9-8.6-7.6c-1-1-2.1-1.9-3.2-2.6s-2.2-1.3-3.4-1.8c-1.3-.5-2.7-.8-4.1-.9-1,0-2.1,0-3.1,0-3.7.2-7.3,1.5-10.8,3.9-1.6,1.1-3.1,2.3-4.6,3.6V11.1c21.1,0,18.6-.1,39.6-.1,10.9,14.4,21.9,29.1,33.5,44.5V0c-52.4,0-81.3.1-134.2.1,7.6,6.9,14.4,13.2,20.9,19.1v56.8l-7,7,7,7v56.1c-7,6.5-14.1,13-21.8,20.1,55.7,0,87.1-.1,141.7-.1v-58c-12.5,16.5-24.4,32.2-35.8,47.2-22.9,0-21.9.1-43.8.1h0v.3Z"/>
        <path class="cls-1" d="M98.5,166.5h78.1c-8-7.4-15.1-14-22.1-20.5v-56l7-7-7-7V19.2c6.8-6.2,13.4-12.3,20.9-19.2h-75.5c5.6,6.1,10.6,11.4,15.2,16.5v59.5h-54.2V16.6c4.7-5.4,9.4-10.8,14.4-16.5H-.3c7.7,6.9,14.6,13.1,21.6,19.3v56.5l-7,7,7,7v55c-6.7,6.9-13.4,13.9-20.8,21.4h76.7c-5.9-6.5-11.1-12.3-16.2-17.9v-58.6h54.2v58.2c-5.5,5.9-10.8,11.8-16.8,18.2h0v.3Z"/>
        <path class="cls-1" d="M436.1,75.2l-6.7-1.6L485.8-.1h-39.9c4.7,4.6,8.7,8.8,12.9,12.8l-38.7,48.2-26.5-47.1c4.1-4.9,7.7-9.2,11.7-13.9h-61.7l49.5,77.8-2.1,9.3,7.3,1.6-54.7,77.9h43.2c-5-5.4-7.6-8.8-11.6-13.3l33.9-51.2,26.2,50.4c-4.5,4.9-8.4,9.2-12.7,13.9h62.7l-51.2-81.7,2.2-9.5h-.2Z"/>
        <path class="cls-1" d="M1230,75.2l-6.7-1.6L1279.7-.1h-39.9c4.7,4.6,8.7,8.8,12.9,12.8l-38.7,48.2-26.6-47.1c4.1-4.9,7.7-9.2,11.7-13.9h-61.7l49.5,77.8-2.1,9.3,7.3,1.6-54.7,77.9h43.2c-5-5.4-7.6-8.8-11.6-13.3l33.9-51.2,26.2,50.4c-4.5,4.9-8.4,9.2-12.7,13.9h62.7l-51.2-81.7,2.2-9.5h-.1Z"/>
        <path class="cls-1" d="M1124.4.1h-53.1c5.8,5.4,12.9,12.9,18.1,17.8v88.1c0,5.2-.4,10.5-.9,15.8-1.6,14.7-13.3,26.1-25.9,31.8-17.1,7.8-35.7-2-41.3-20-1.9-6.2-3.4-12.9-3.5-19.5,0-8,0-16-.2-24l6.8-6.8-6.9-6.9V15C1022.5,10.1,1027.3,5.4,1032.8,0h-72.3c7.3,6.6,13.6,12.2,20.2,18.1v8.6c0,5.5,0,10.9,0,16.4,0,11.1.2,22.1.3,33.2l-7,7,4.1,4.1h0l3,3.1c0,10.2.2,20.4.3,30.7,0,10,2.7,18.4,9.2,26,6,6.9,13.9,12.2,22.1,15.8,13.6,5.8,29.5,8.3,44.1,5.8,13-2.2,23.9-8.2,33.6-17.2,1.9-1.8,3.8-3.6,5.4-5.7,7.1-9.4,9.8-20.2,9.9-31.5,0-12.9,0-25.9.2-38.8V18c5.8-5.5,11.8-11.2,18.7-17.8h-.3Z"/>
        <path class="cls-1" d="M773.5,148.4c6.5,5.8,13.1,11.5,20.4,18.1h-85.1c8.9-6.4,16.9-12.1,24.9-17.9v-58.9h-149.3c-1.1,0-2.2,0-3.3.2-1.3,0-2.6.2-4,.4-1.2,0-2.4.3-3.7.4-.6,0-1.2.2-1.8.3h-1.7c-1.2,0-2.2,0-3.3-.2-1.5-.2-2.9-.4-4.4-.8-.7-.2-1.5-.3-2.3-.4-3.1-.7-6.3-1.5-9.7-2.6-1.1-.3-2.2-.7-3.4-1.1,0,0-1.9-.7-4.4-1.6-1.6-.6-3.5-1.3-5.5-2-.3,0-.4-.2-.6-.3-.5,0-1.7-.5-3.5-1.2-1.9-.9-3.8-1.4-5.8-1.4s-.7,0-1,0c-2.4,0-4.6.6-6.8,1.3-2.2.7-4.3,1.5-6.4,2.5-2.1.8-4.1,1.6-5.9,2,4-4.4,8.9-8.5,14.6-12.5,5.7-3.8,11.7-5.9,18.1-6.3h6.1c.6.2,1.1.3,1.7.4.5,0,1,.3,1.5.6,1,.4,2,.8,2.9,1.3s1.9,1,2.7,1.6c1,.5,1.9,1.1,2.7,1.7.5.3.9.6,1.4.9.3.2.7.4,1.1.7.8.5,1.6,1,2.3,1.5,1.5.9,3.2,1.7,4.9,2.1.4.2.9.3,1.4.3h.8c2.8,0,12.4-1,13.7-1.1h150.8V11.3h-43.9c-10.4,15.3-21,30.8-32.3,47.4V0h138.5c-8.1,8.2-15.4,15.6-22.6,22.9v53.5l7,6.9-7,7v58.2h.2Z"/>
      </g>
    </g>
  </g>
</svg>